<?xml version="1.0" encoding="UTF-8" standalone="no"?>
<!DOCTYPE svg PUBLIC "-//W3C//DTD SVG 1.1//EN" "http://www.w3.org/Graphics/SVG/1.1/DTD/svg11.dtd">
<svg width="100%" height="100%" viewBox="0 0 51 51" version="1.1" xmlns="http://www.w3.org/2000/svg" xmlns:xlink="http://www.w3.org/1999/xlink" xml:space="preserve" xmlns:serif="http://www.serif.com/" style="fill-rule:evenodd;clip-rule:evenodd;stroke-linejoin:round;stroke-miterlimit:2;">
    <g>
        <path d="M1.546,33.86c-0.995,-2.705 -1.546,-5.646 -1.546,-8.724c0,-13.908 11.23,-25.136 25.136,-25.136c13.907,0 25.135,11.228 25.135,25.136c0,13.907 -11.228,25.135 -25.135,25.135c-2.645,0 -5.165,-0.382 -7.525,-1.117l-5.715,0.98c-3.001,0.514 -6.068,-0.43 -8.26,-2.545l-1.425,-1.743c-0.401,-0.628 -0.725,-1.3 -0.969,-1.999c-0.243,-0.7 -0.405,-1.428 -0.481,-2.169l0.036,-2.252l0.749,-5.566Z" style="fill:#1bd741;"/>
        <g>
            <g id="facebook">
            </g>
            <path d="M12.573,40.638l2.836,-0.507l1.723,-0.304c2.432,1.317 5.067,2.026 8.004,2.026c10.215,0 18.315,-9.202 16.449,-19.753c-1.21,-6.844 -6.568,-12.202 -13.412,-13.413c-10.552,-1.867 -19.754,6.234 -19.754,16.449c-0,3.343 1.013,6.383 2.634,9.017l-0.202,1.52l-0.406,3.04l-0.304,2.33l2.432,-0.405Zm12.563,-35.462c11.044,-0 19.959,8.916 19.959,19.96c0,11.044 -8.915,19.96 -19.959,19.96c-3.039,-0 -5.876,-0.608 -8.41,-1.824l-10.638,1.824l1.418,-10.538l-0.101,-0.202c-1.419,-2.736 -2.229,-5.877 -2.229,-9.22c-0,-11.044 8.917,-19.96 19.96,-19.96Zm-7.092,10.841c1.115,-0.709 1.824,-0.203 2.229,0.912l1.014,2.634c-0,0 0.709,1.419 -1.115,2.837c-0.304,0.203 -0.304,0.203 -0.203,0.709c0.406,1.216 2.027,4.864 7.193,7.701c0.507,0.304 0.608,0.304 1.115,-0.102c0.405,-0.405 0.912,-0.912 1.317,-1.317c0.913,-0.81 1.419,-1.114 2.23,-0.506c0.608,0.405 1.216,0.911 1.824,1.317c0.608,0.506 1.62,1.114 0.608,2.33l-0.912,1.115c-1.317,1.621 -2.432,1.722 -4.155,1.317c-6.585,-1.723 -11.449,-6.383 -13.577,-12.969c-0.71,-2.533 0.304,-4.661 2.432,-5.978Z" style="fill:#fff;"/>
        </g>
    </g>
</svg>
