<?xml version="1.0" encoding="UTF-8" standalone="no"?>
<!DOCTYPE svg PUBLIC "-//W3C//DTD SVG 1.1//EN" "http://www.w3.org/Graphics/SVG/1.1/DTD/svg11.dtd">
<svg width="100%" height="100%" viewBox="0 0 18 14" version="1.1" xmlns="http://www.w3.org/2000/svg" xmlns:xlink="http://www.w3.org/1999/xlink" xml:space="preserve" xmlns:serif="http://www.serif.com/" style="fill-rule:evenodd;clip-rule:evenodd;stroke-linejoin:round;stroke-miterlimit:2;">
    <path d="M17.709,0.436l-0,0.873c-0,0.241 -0.196,0.437 -0.437,0.437l-16.836,-0c-0.24,-0 -0.436,-0.196 -0.436,-0.437l-0,-0.873c-0,-0.24 0.196,-0.436 0.436,-0.436l16.836,0c0.241,0 0.437,0.196 0.437,0.436Z" style="fill:#012880;"/>
    <path d="M17.709,6.404l-0,0.873c-0,0.241 -0.196,0.436 -0.437,0.436l-16.836,0c-0.24,0 -0.436,-0.195 -0.436,-0.436l0,-0.873c0,-0.241 0.196,-0.437 0.436,-0.437l16.836,0c0.241,0 0.437,0.196 0.437,0.437Z" style="fill:#012880;"/>
    <path d="M17.709,12.371l-0,0.873c-0,0.241 -0.196,0.436 -0.437,0.436l-16.836,0c-0.24,0 -0.436,-0.195 -0.436,-0.436l0,-0.873c0,-0.241 0.196,-0.436 0.436,-0.436l16.836,-0c0.241,-0 0.437,0.195 0.437,0.436Z" style="fill:#012880;"/>
</svg>
